<svg width="522" height="347" viewBox="0 0 522 347" fill="none" xmlns="http://www.w3.org/2000/svg">
<path d="M522 1.42991e-05V347L459.924 285.125C432.34 257.558 432.34 212.862 459.924 185.296L461.426 183.847C465.181 180.102 465.181 174.009 461.426 170.214C457.621 166.469 451.514 166.469 447.759 170.214L364.558 253.214C351.492 266.248 330.266 266.248 317.2 253.214C304.084 240.179 304.084 219.005 317.2 205.971L437.246 86.1657C440.801 82.6699 440.801 76.9768 437.246 73.4311C433.742 69.9354 428.035 69.9354 424.481 73.4311L343.432 154.333C320.254 177.405 282.758 177.405 259.629 154.333C236.451 131.261 236.451 93.8065 259.629 70.7344L312.644 17.8484L280.555 13.4537L134.877 158.778C118.307 175.358 91.3738 175.358 74.7535 158.778C58.1833 142.198 58.1833 115.33 74.7535 98.8004C82.6131 90.9599 117.456 56.202 122.512 51.1581C125.766 47.912 125.766 42.6184 122.462 39.3224L122.312 39.1726C119.158 36.0264 114.001 36.0264 110.848 39.1726L95.7792 54.2044C77.607 72.3325 48.071 72.3325 29.8487 54.2044L0 0" fill="#E6F4F1"/>
</svg>
