<svg width="40" height="40" viewBox="0 0 40 40" fill="none" xmlns="http://www.w3.org/2000/svg">
<path d="M26.5625 14.1875L22.4375 18.3125C22.0625 18.6875 21.5625 18.875 21.125 18.875C20.6875 18.875 20.1875 18.6875 19.8125 18.3125L15.6875 14.1875C14.625 13.3125 14.125 11.9375 14.375 10.5625C14.625 9.0625 15.8125 7.875 17.25 7.5625C18.375 7.3125 19.5625 7.625 20.4375 8.3125C20.75 8.5625 21 8.8125 21.1875 9.125C21.375 8.8125 21.625 8.5625 21.9375 8.3125C22.8125 7.625 24 7.3125 25.125 7.5625C26.5625 7.875 27.75 9.0625 28 10.5625C28.125 11.9375 27.625 13.3125 26.5625 14.1875ZM26.6875 10.75C26.5 9.75 25.75 9 24.75 8.75C24 8.5625 23.25 8.75 22.625 9.25C22.0625 9.75 21.6875 10.4375 21.6875 11.1875C21.6875 11.5625 21.4375 11.8125 21.0625 11.8125C20.6875 11.8125 20.4375 11.5625 20.4375 11.1875C20.4375 10.4375 20.125 9.75 19.5 9.25C18.875 8.75 18.125 8.5625 17.375 8.75C16.4375 8.9375 15.625 9.75 15.4375 10.75C15.25 11.6875 15.625 12.625 16.375 13.1875C16.4375 13.25 16.5 13.25 16.5 13.3125L20.625 17.4375C20.875 17.6875 21.25 17.6875 21.5 17.4375L25.5 13.4375C25.5625 13.375 25.5625 13.3125 25.625 13.3125C26.5 12.6875 26.8125 11.75 26.6875 10.75ZM14.8125 19.0625V20.3125H13.875V21.25H12.625V20.3125H11.6875V19.0625H12.625V18.125H13.875V19.0625H14.8125ZM33.25 9.375H32V8.4375H31.0625V7.1875H32V6.25H33.25V7.1875H34.1875V8.4375H33.25V9.375ZM9.375 3.75H8.125V3.125H7.5V1.875H8.125V1.25H9.375V1.875H10V3.125H9.375V3.75ZM2.9375 25H9.1875C9.5625 25 9.8125 25.25 9.8125 25.625V27.1875C10.5 26.875 11.5625 26.375 12.5625 25.6875C14.5 24.375 21.75 21.9375 22.125 21.875C22.4375 21.8125 25.125 21.1875 25.9375 22.8125C26.75 24.4375 25.25 26 25.1875 26.0625C25.125 26.125 25.125 26.125 25.0625 26.125L20.875 28.75C21.625 29.1875 22.875 29.75 24.4375 30L26.6875 27.125C26.875 26.8125 28 25.0625 29.5 24.75C30.125 24.625 30.75 24.75 31.3125 25.0625C32.875 26.0625 32.5 27.6875 32.125 28.4375L31.875 28.8125C33.75 28.1875 35.0625 27.5625 35.0625 27.5C35.0625 27.5 35.125 27.5 35.125 27.4375C36 27.125 37.6875 27 38.375 28.375C39.1875 30 37.6875 31.5625 37.625 31.625C37.5625 31.6875 37.5625 31.6875 37.5 31.6875C37.4375 31.9375 32.5 35 26.75 35.625C24.625 35.875 22.125 36 19.6875 36C16.75 36 13.8125 35.8125 11.5625 35.25L11.875 34.0625C15.75 35 22.25 34.875 26.625 34.375C31.6875 33.8125 36.3125 31.125 36.9375 30.75C37.125 30.5625 37.75 29.75 37.375 29C37.0625 28.3125 35.875 28.625 35.6875 28.6875C35.1875 28.9375 31.625 30.625 27.4375 31.25C22.875 31.875 19.625 29.375 19.4375 29.25C19.25 29.125 19.1875 28.9375 19.1875 28.75C19.1875 28.5625 19.3125 28.375 19.5 28.25L24.4375 25.1875C24.625 25 25.25 24.1875 24.875 23.4375C24.5625 22.8125 23.0625 23 22.5 23.125C22.4375 23.125 15.0625 25.625 13.25 26.8125C11.875 27.75 10.4375 28.3125 9.75 28.625V36.875C9.75 37.25 9.5 37.5 9.125 37.5H2.875C2.5 37.5 2.25 37.25 2.25 36.875V25.625C2.3125 25.25 2.625 25 2.9375 25ZM27.25 30C28.25 29.875 29.1875 29.625 30.125 29.4375L31.1875 27.875C31.25 27.75 31.75 26.8125 30.75 26.1875C30.5 26 30.25 25.9375 29.9375 26C29.0625 26.1875 28.1875 27.375 27.875 27.8125C27.875 27.8125 27.875 27.875 27.8125 27.875L26.0625 30.0625C26.4375 30.0625 26.8125 30.0625 27.25 30ZM3.5625 36.25H8.5625V26.25H3.5625V36.25Z" fill="#219D80" stroke="#219D80"/>
</svg>
