<svg width="40" height="40" viewBox="0 0 40 40" fill="none" xmlns="http://www.w3.org/2000/svg">
<path d="M20 21.25C14.4863 21.25 10 16.7638 10 11.25C10 5.73625 14.4863 1.25 20 1.25C25.5138 1.25 30 5.73625 30 11.25C30 16.7638 25.5138 21.25 20 21.25ZM20 3.75C15.8637 3.75 12.5 7.11375 12.5 11.25C12.5 15.3862 15.8637 18.75 20 18.75C24.1362 18.75 27.5 15.3862 27.5 11.25C27.5 7.11375 24.1362 3.75 20 3.75Z" fill="#219D80"/>
<path d="M20.5 16.5H19.5C18.7994 16.4972 18.1182 16.2692 17.5571 15.8497C16.9959 15.4301 16.5846 14.8412 16.3838 14.17C16.3331 14.0114 16.3146 13.8442 16.3295 13.6783C16.3443 13.5124 16.3922 13.3512 16.4702 13.2041C16.5482 13.057 16.6548 12.9269 16.7838 12.8216C16.9128 12.7162 17.0615 12.6377 17.2213 12.5907C17.381 12.5436 17.5486 12.5289 17.7141 12.5475C17.8796 12.5661 18.0397 12.6176 18.185 12.6989C18.3303 12.7803 18.4579 12.8898 18.5603 13.0212C18.6627 13.1525 18.7378 13.303 18.7812 13.4637C18.875 13.78 19.1713 14.0013 19.5 14.0013H20.5C20.6991 14.0013 20.89 13.9222 21.0308 13.7814C21.1715 13.6406 21.2506 13.4497 21.2506 13.2506C21.2506 13.0515 21.1715 12.8606 21.0308 12.7199C20.89 12.5791 20.6991 12.5 20.5 12.5H19.5C17.7075 12.5 16.25 11.0412 16.25 9.25C16.25 7.45875 17.7075 6 19.5 6H20.5C21.9012 6 23.1387 6.8925 23.5825 8.2225C23.637 8.37883 23.6599 8.54442 23.6498 8.70966C23.6398 8.8749 23.597 9.0365 23.524 9.18508C23.451 9.33366 23.3492 9.46625 23.2245 9.57517C23.0999 9.68409 22.9548 9.76716 22.7978 9.81956C22.6407 9.87196 22.4749 9.89265 22.3098 9.88042C22.1447 9.86819 21.9837 9.82329 21.8361 9.74832C21.6885 9.67335 21.5572 9.56981 21.45 9.44371C21.3427 9.31761 21.2616 9.17146 21.2112 9.01375C21.162 8.86408 21.0667 8.73381 20.9389 8.64154C20.8112 8.54928 20.6576 8.49974 20.5 8.5H19.5C19.3011 8.5 19.1103 8.57902 18.9697 8.71967C18.829 8.86032 18.75 9.05109 18.75 9.25C18.75 9.44891 18.829 9.63968 18.9697 9.78033C19.1103 9.92098 19.3011 10 19.5 10H20.5C22.2925 10 23.75 11.4588 23.75 13.25C23.75 15.0413 22.2925 16.5 20.5 16.5Z" fill="#219D80"/>
<path d="M20 7.5C19.6612 7.5 19.3487 7.3625 19.1125 7.1375C19.0625 7.075 19 7.0125 18.9625 6.9375C18.9129 6.87374 18.8749 6.80183 18.85 6.725C18.8141 6.65399 18.7884 6.57823 18.7738 6.5C18.7625 6.4125 18.75 6.3375 18.75 6.25C18.75 5.925 18.8862 5.6 19.1125 5.3625C19.575 4.9 20.4125 4.9 20.8875 5.3625C21.1125 5.6 21.25 5.925 21.25 6.25C21.25 6.3375 21.2375 6.4125 21.2238 6.5C21.2107 6.57847 21.1854 6.6544 21.1488 6.725C21.1234 6.80162 21.0854 6.87345 21.0363 6.9375C20.9862 7.0125 20.9362 7.075 20.8862 7.1375C20.65 7.3625 20.325 7.5 20 7.5ZM20 17.5C19.6612 17.5 19.3487 17.3625 19.1125 17.1375C19.0625 17.075 19 17.0125 18.9625 16.9375C18.9129 16.8737 18.8749 16.8018 18.85 16.725C18.8141 16.654 18.7884 16.5782 18.7738 16.5C18.7625 16.4125 18.75 16.3375 18.75 16.25C18.75 15.925 18.8862 15.6 19.1125 15.3625C19.575 14.9 20.4125 14.9 20.8875 15.3625C21.1125 15.6 21.25 15.925 21.25 16.25C21.25 16.3375 21.2375 16.4125 21.2238 16.5C21.2107 16.5785 21.1854 16.6544 21.1488 16.725C21.1234 16.8016 21.0854 16.8734 21.0363 16.9375C20.9862 17.0125 20.9362 17.075 20.8862 17.1375C20.65 17.3625 20.325 17.5 20 17.5ZM22.5 38.75H2.5C2.16848 38.75 1.85054 38.6183 1.61612 38.3839C1.3817 38.1495 1.25 37.8315 1.25 37.5V26.25C1.25 25.9187 1.38125 25.6 1.61625 25.3662C1.90875 25.0725 4.56625 22.5 7.5 22.5C9.93 22.5 13.065 24.3363 14.1187 25H20C20.5471 25.0008 21.0875 25.1212 21.5832 25.3527C22.0789 25.5842 22.5181 25.9213 22.87 26.3403C23.2218 26.7593 23.4778 27.2501 23.6201 27.7784C23.7624 28.3067 23.7875 28.8597 23.6938 29.3987L33.5575 25.2887C34.1273 25.0507 34.747 24.9573 35.3616 25.0169C35.9762 25.0764 36.5665 25.287 37.08 25.63C37.5942 25.9718 38.0158 26.4357 38.3072 26.9801C38.5986 27.5245 38.7507 28.1325 38.75 28.75C38.7501 28.9685 38.6929 29.1832 38.5841 29.3727C38.4753 29.5622 38.3187 29.7199 38.13 29.83L23.13 38.58C22.9387 38.6913 22.7213 38.7499 22.5 38.75ZM3.75 36.25H22.1613L36.0863 28.1275C35.9891 27.9601 35.8549 27.8172 35.6937 27.71C35.5233 27.5942 35.3265 27.5232 35.1214 27.5033C34.9163 27.4834 34.7095 27.5154 34.52 27.5962L22.9825 32.4037C22.8296 32.4673 22.6656 32.5 22.5 32.5H12.5C12.1685 32.5 11.8505 32.3683 11.6161 32.1339C11.3817 31.8995 11.25 31.5815 11.25 31.25C11.25 30.9185 11.3817 30.6005 11.6161 30.3661C11.8505 30.1317 12.1685 30 12.5 30H20C20.3218 29.9856 20.6257 29.8476 20.8484 29.6148C21.0711 29.3819 21.1953 29.0722 21.1953 28.75C21.1953 28.4278 21.0711 28.1181 20.8484 27.8852C20.6257 27.6524 20.3218 27.5144 20 27.5H13.75C13.5037 27.5 13.2612 27.4262 13.0562 27.2912C12.1 26.6537 9.23375 25 7.5 25C6.1375 25 4.56625 26.1 3.75 26.7987V36.25Z" fill="#219D80"/>
</svg>
